<?xml version="1.0" standalone="no"?>
<!DOCTYPE svg PUBLIC "-//W3C//DTD SVG 20010904//EN"
 "http://www.w3.org/TR/2001/REC-SVG-20010904/DTD/svg10.dtd">
<svg version="1.0" xmlns="http://www.w3.org/2000/svg"
 width="77.000000pt" height="77.000000pt" viewBox="0 0 77.000000 77.000000"
 preserveAspectRatio="xMidYMid meet">
<metadata>
Created by potrace 1.11, written by Peter Selinger 2001-2013
</metadata>
<g transform="translate(0.000000,77.000000) scale(0.100000,-0.100000)"
fill="#000000" stroke="none">
<path d="M360 707 c0 -24 -3 -46 -6 -50 -10 -9 -60 19 -89 50 l-25 28 0 -26
c0 -31 32 -75 62 -85 21 -6 21 -7 3 -20 -10 -8 -36 -14 -57 -14 -47 0 -49 -15
-5 -29 34 -12 63 -9 96 9 16 8 21 8 21 -2 0 -7 5 -31 11 -52 12 -44 24 -36 34
25 l6 36 42 -15 c38 -13 45 -13 82 3 l40 19 -52 6 c-60 6 -87 24 -54 35 29 9
61 53 61 83 l0 26 -30 -31 c-17 -17 -44 -36 -60 -42 l-30 -10 0 50 c0 46 -2
49 -25 49 -23 0 -25 -4 -25 -43z"/>
<path d="M159 645 c-177 -116 -204 -348 -57 -495 185 -184 531 -131 636 98 36
79 36 175 0 252 -27 60 -90 127 -145 156 -34 19 -35 19 -49 0 -13 -18 -11 -21
18 -35 55 -26 124 -105 143 -162 34 -103 3 -215 -80 -288 -166 -146 -450 -102
-545 85 -34 66 -35 169 -2 232 27 51 90 115 132 132 25 10 28 15 19 31 -13 24
-26 23 -70 -6z"/>
<path d="M168 523 c-35 -40 -58 -98 -58 -148 0 -51 31 -135 49 -135 20 0 20
19 1 62 -10 24 -18 57 -16 73 2 17 4 38 5 47 0 9 16 37 35 61 19 25 32 48 29
51 -11 11 -30 6 -45 -11z"/>
<path d="M250 456 c14 -8 29 -12 33 -9 5 3 4 -4 -2 -15 -7 -14 -8 -23 -1 -27
15 -9 32 5 26 21 -4 11 1 13 19 8 15 -4 25 -2 25 5 0 6 -6 11 -12 12 -7 0 -22
2 -33 4 -11 2 -33 6 -50 9 l-30 6 25 -14z"/>
<path d="M463 457 c-29 -5 -53 -14 -53 -20 0 -5 13 -7 29 -4 25 5 28 3 24 -13
-4 -14 0 -20 12 -20 13 0 16 6 11 25 -5 20 -3 25 11 25 10 0 25 5 33 10 19 12
8 12 -67 -3z"/>
<path d="M362 420 c0 -14 2 -19 5 -12 2 6 2 18 0 25 -3 6 -5 1 -5 -13z"/>
<path d="M346 366 c-3 -13 -8 -31 -12 -39 -3 -8 2 -22 11 -31 13 -13 14 -16 2
-16 -8 0 -36 -9 -62 -21 -34 -15 -50 -18 -58 -10 -6 6 -7 14 -3 18 4 4 11 1
16 -7 8 -13 10 -12 10 3 0 21 -23 22 -39 3 -17 -20 29 -50 66 -43 14 3 43 -1
62 -7 24 -8 48 -10 71 -4 19 5 57 10 83 11 49 3 70 18 60 44 -7 18 -30 16 -41
-4 -9 -15 -12 -15 -45 0 -19 9 -41 17 -48 17 -8 0 -5 8 7 22 14 17 15 19 2 10
-9 -8 -27 -12 -40 -10 -20 3 -23 9 -23 46 0 46 -9 56 -19 18z m192 -108 c-2
-6 -10 -14 -16 -16 -7 -2 -10 2 -6 12 7 18 28 22 22 4z m-145 -25 c-7 -2 -19
-2 -25 0 -7 3 -2 5 12 5 14 0 19 -2 13 -5z"/>
<path d="M351 179 c19 -12 56 -11 64 0 3 6 -13 10 -36 9 -27 0 -37 -3 -28 -9z"/>
</g>
</svg>
